<svg width="167" height="24" viewBox="0 0 167 24" fill="none" xmlns="http://www.w3.org/2000/svg">
<path d="M16.8096 13.2004L17.3428 9.72564H14.0087V7.47077C14.0087 6.52014 14.4744 5.59352 15.9677 5.59352H17.4834V2.63514C17.4834 2.63514 16.1079 2.40039 14.7928 2.40039C12.0471 2.40039 10.2523 4.06464 10.2523 7.07739V9.72564H7.2002V13.2004H10.2523V21.6004H14.0087V13.2004H16.8096Z" fill="white"/>
<path d="M46.5006 7.07671C43.7764 7.07671 41.579 9.27406 41.579 11.9982C41.579 14.7224 43.7764 16.9198 46.5006 16.9198C49.2248 16.9198 51.4221 14.7224 51.4221 11.9982C51.4221 9.27406 49.2248 7.07671 46.5006 7.07671ZM46.5006 15.1979C44.7401 15.1979 43.3009 13.763 43.3009 11.9982C43.3009 10.2335 44.7359 8.79861 46.5006 8.79861C48.2653 8.79861 49.7002 10.2335 49.7002 11.9982C49.7002 13.763 48.261 15.1979 46.5006 15.1979ZM52.7714 6.87539C52.7714 7.51361 52.2574 8.02332 51.6234 8.02332C50.9852 8.02332 50.4755 7.50933 50.4755 6.87539C50.4755 6.24146 50.9895 5.72746 51.6234 5.72746C52.2574 5.72746 52.7714 6.24146 52.7714 6.87539ZM56.031 8.04046C55.9582 6.50274 55.6069 5.14065 54.4804 4.01842C53.3582 2.89619 51.9961 2.54495 50.4584 2.46785C48.8735 2.3779 44.1233 2.3779 42.5385 2.46785C41.0051 2.54067 39.643 2.8919 38.5165 4.01413C37.3899 5.13636 37.043 6.49846 36.9659 8.03617C36.876 9.621 36.876 14.3712 36.9659 15.956C37.0387 17.4938 37.3899 18.8559 38.5165 19.9781C39.643 21.1003 41.0008 21.4515 42.5385 21.5286C44.1233 21.6186 48.8735 21.6186 50.4584 21.5286C51.9961 21.4558 53.3582 21.1046 54.4804 19.9781C55.6026 18.8559 55.9539 17.4938 56.031 15.956C56.1209 14.3712 56.1209 9.62529 56.031 8.04046ZM53.9835 17.6565C53.6494 18.4961 53.0027 19.1428 52.1589 19.4812C50.8953 19.9824 47.8969 19.8667 46.5006 19.8667C45.1042 19.8667 42.1016 19.9781 40.8423 19.4812C40.0028 19.1471 39.356 18.5003 39.0176 17.6565C38.5165 16.3929 38.6321 13.3946 38.6321 11.9982C38.6321 10.6019 38.5207 7.59928 39.0176 6.33998C39.3517 5.50045 39.9985 4.85366 40.8423 4.51528C42.1059 4.01413 45.1042 4.12978 46.5006 4.12978C47.8969 4.12978 50.8996 4.01842 52.1589 4.51528C52.9984 4.84938 53.6452 5.49616 53.9835 6.33998C54.4847 7.60356 54.369 10.6019 54.369 11.9982C54.369 13.3946 54.4847 16.3972 53.9835 17.6565Z" fill="white"/>
<path d="M91.6972 6.91209C91.4764 6.08065 90.8258 5.42583 89.9998 5.20361C88.5024 4.7998 82.4984 4.7998 82.4984 4.7998C82.4984 4.7998 76.4945 4.7998 74.9971 5.20361C74.1711 5.42587 73.5205 6.08065 73.2996 6.91209C72.8984 8.41914 72.8984 11.5634 72.8984 11.5634C72.8984 11.5634 72.8984 14.7077 73.2996 16.2148C73.5205 17.0462 74.1711 17.6738 74.9971 17.896C76.4945 18.2998 82.4984 18.2998 82.4984 18.2998C82.4984 18.2998 88.5024 18.2998 89.9998 17.896C90.8258 17.6738 91.4764 17.0462 91.6972 16.2148C92.0984 14.7077 92.0984 11.5634 92.0984 11.5634C92.0984 11.5634 92.0984 8.41914 91.6972 6.91209ZM80.5348 14.4182V8.70865L85.5529 11.5635L80.5348 14.4182Z" fill="white"/>
<path d="M126.125 8.68609C126.137 8.85664 126.137 9.02723 126.137 9.19778C126.137 14.3998 122.178 20.3938 114.941 20.3938C112.712 20.3938 110.641 19.748 108.898 18.6273C109.215 18.6638 109.52 18.676 109.849 18.676C111.688 18.676 113.382 18.0547 114.734 16.9948C113.004 16.9582 111.554 15.8252 111.055 14.2658C111.298 14.3023 111.542 14.3267 111.798 14.3267C112.151 14.3267 112.505 14.278 112.833 14.1927C111.03 13.8272 109.678 12.2435 109.678 10.3308V10.2821C110.202 10.5745 110.811 10.7572 111.457 10.7815C110.397 10.0749 109.702 8.86883 109.702 7.50435C109.702 6.7734 109.897 6.10335 110.239 5.51857C112.176 7.90639 115.087 9.46576 118.352 9.63635C118.291 9.34396 118.255 9.03942 118.255 8.73484C118.255 6.56629 120.009 4.7998 122.19 4.7998C123.323 4.7998 124.346 5.27493 125.065 6.04245C125.954 5.8719 126.807 5.54295 127.562 5.09219C127.27 6.00592 126.649 6.77344 125.832 7.26071C126.624 7.17548 127.392 6.95614 128.098 6.6516C127.562 7.43126 126.892 8.12565 126.125 8.68609Z" fill="white"/>
<path d="M155.148 2.40039C151.202 2.40039 147.301 5.03165 147.301 9.29012C147.301 11.9983 148.824 13.5371 149.747 13.5371C150.128 13.5371 150.347 12.4753 150.347 12.1753C150.347 11.8175 149.436 11.0558 149.436 9.5671C149.436 6.47422 151.79 4.28151 154.837 4.28151C157.457 4.28151 159.395 5.77024 159.395 8.50536C159.395 10.548 158.576 14.3795 155.922 14.3795C154.964 14.3795 154.144 13.6871 154.144 12.6946C154.144 11.2405 155.16 9.83253 155.16 8.33226C155.16 5.78563 151.548 6.24726 151.548 9.32475C151.548 9.97102 151.629 10.6865 151.917 11.2751C151.386 13.5601 150.301 16.9646 150.301 19.3189C150.301 20.046 150.405 20.7615 150.474 21.4885C150.605 21.6347 150.54 21.6193 150.74 21.5462C152.679 18.8919 152.609 18.3726 153.487 14.8989C153.96 15.799 155.183 16.2837 156.152 16.2837C160.238 16.2837 162.073 12.3022 162.073 8.7131C162.073 4.89316 158.772 2.40039 155.148 2.40039Z" fill="white"/>
</svg>
