<svg width="30" height="30" viewBox="0 0 30 30" fill="none" xmlns="http://www.w3.org/2000/svg">
<path opacity="0.2" d="M14.7192 26.3383C15.5994 26.3383 16.313 25.6324 16.313 24.7617C16.313 23.891 15.5994 23.1851 14.7192 23.1851C13.839 23.1851 13.1255 23.891 13.1255 24.7617C13.1255 25.6324 13.839 26.3383 14.7192 26.3383Z" fill="#121212"/>
<path opacity="0.6" d="M15.0001 7.41963C16.3808 7.41963 17.5001 6.31239 17.5001 4.94654C17.5001 3.58069 16.3808 2.47345 15.0001 2.47345C13.6194 2.47345 12.5001 3.58069 12.5001 4.94654C12.5001 6.31239 13.6194 7.41963 15.0001 7.41963Z" fill="#121212"/>
<path opacity="0.1" d="M7.96849 23.1852C8.74514 23.1852 9.37474 22.5624 9.37474 21.7941C9.37474 21.0258 8.74514 20.403 7.96849 20.403C7.19184 20.403 6.56224 21.0258 6.56224 21.7941C6.56224 22.5624 7.19184 23.1852 7.96849 23.1852Z" fill="#121212"/>
<path opacity="0.5" d="M21.8437 9.83054C23.0346 9.83054 24 8.87554 24 7.6975C24 6.51945 23.0346 5.56445 21.8437 5.56445C20.6529 5.56445 19.6875 6.51945 19.6875 7.6975C19.6875 8.87554 20.6529 9.83054 21.8437 9.83054Z" fill="#121212"/>
<path d="M4.99968 17.3129C6.38108 17.3129 7.50093 16.2051 7.50093 14.8386C7.50093 13.4721 6.38108 12.3643 4.99968 12.3643C3.61827 12.3643 2.49843 13.4721 2.49843 14.8386C2.49843 16.2051 3.61827 17.3129 4.99968 17.3129Z" fill="#121212"/>
<path opacity="0.4" d="M25.4066 16.8787C26.4939 16.8787 27.3754 16.0068 27.3754 14.9312C27.3754 13.8556 26.4939 12.9836 25.4066 12.9836C24.3193 12.9836 23.4379 13.8556 23.4379 14.9312C23.4379 16.0068 24.3193 16.8787 25.4066 16.8787Z" fill="#121212"/>
<path d="M7.92841 10.3176C9.30912 10.3176 10.4284 9.21041 10.4284 7.84456C10.4284 6.47871 9.30912 5.37147 7.92841 5.37147C6.5477 5.37147 5.42841 6.47871 5.42841 7.84456C5.42841 9.21041 6.5477 10.3176 7.92841 10.3176Z" fill="#121212"/>
<path opacity="0.3" d="M22.406 23.9271C23.3898 23.9271 24.1873 23.1382 24.1873 22.1651C24.1873 21.1919 23.3898 20.403 22.406 20.403C21.4222 20.403 20.6248 21.1919 20.6248 22.1651C20.6248 23.1382 21.4222 23.9271 22.406 23.9271Z" fill="#121212"/>
</svg>
