<svg width="12" height="18" viewBox="0 0 12 18" fill="none" xmlns="http://www.w3.org/2000/svg">
<g clip-path="url(#clip0_2_128)">
<path d="M8.00098 1.44531V5.77964H11.001" stroke="white" stroke-linecap="round" stroke-linejoin="round"/>
<path d="M11.501 0.722656L8.00098 5.77937" stroke="white" stroke-linecap="round" stroke-linejoin="round"/>
<path d="M10.9987 12.2224V14.3896C10.9993 14.5908 10.9708 14.7899 10.915 14.9743C10.8592 15.1586 10.7774 15.3241 10.6748 15.4601C10.5722 15.5961 10.451 15.6996 10.3191 15.7641C10.1872 15.8285 10.0474 15.8525 9.90875 15.8344C8.37016 15.5928 6.89225 14.8333 5.59375 13.6166C4.38566 12.5075 3.36141 11.0277 2.59375 9.28232C1.74873 7.39775 1.22287 5.25211 1.05875 3.01921C1.04625 2.81945 1.06268 2.61811 1.107 2.42803C1.15131 2.23794 1.22253 2.06327 1.31613 1.91513C1.40973 1.76699 1.52365 1.64863 1.65064 1.56759C1.77763 1.48655 1.91492 1.44459 2.05375 1.44441H3.55375C3.7964 1.44096 4.03164 1.5651 4.21563 1.7937C4.39961 2.02231 4.51978 2.33977 4.55375 2.68691C4.61706 3.38045 4.73447 4.06142 4.90375 4.71682C4.97102 4.97538 4.98558 5.25639 4.9457 5.52653C4.90582 5.79668 4.81318 6.04465 4.67875 6.24106L4.04375 7.1585C4.75552 8.96703 5.79197 10.4645 7.04375 11.4928L7.67875 10.5754C7.81469 10.3812 7.98632 10.2473 8.17331 10.1897C8.36029 10.1321 8.55478 10.1531 8.73375 10.2503C9.18738 10.4949 9.65871 10.6645 10.1387 10.756C10.3816 10.8055 10.6034 10.9822 10.762 11.2526C10.9206 11.523 11.0048 11.8682 10.9987 12.2224Z" stroke="white" stroke-linecap="round" stroke-linejoin="round"/>
</g>
<defs>
<clipPath id="clip0_2_128">
<rect width="12" height="17.3373" fill="white"/>
</clipPath>
</defs>
</svg>
