<svg width="12" height="18" viewBox="0 0 12 18" fill="none" xmlns="http://www.w3.org/2000/svg">
<path d="M10.5 7.22415C10.5 12.2809 6 16.6152 6 16.6152C6 16.6152 1.5 12.2809 1.5 7.22415C1.5 5.49985 1.97411 3.84617 2.81802 2.6269C3.66193 1.40763 4.80653 0.722656 6 0.722656C7.19347 0.722656 8.33807 1.40763 9.18198 2.6269C10.0259 3.84617 10.5 5.49985 10.5 7.22415Z" stroke="white" stroke-linecap="round" stroke-linejoin="round"/>
<path d="M6 9.39103C6.82843 9.39103 7.5 8.42076 7.5 7.22387C7.5 6.02697 6.82843 5.0567 6 5.0567C5.17157 5.0567 4.5 6.02697 4.5 7.22387C4.5 8.42076 5.17157 9.39103 6 9.39103Z" stroke="white" stroke-linecap="round" stroke-linejoin="round"/>
</svg>
