<svg width="260" height="55" viewBox="0 0 260 55" fill="none" xmlns="http://www.w3.org/2000/svg">
<rect x="3.76816" y="3.63219" width="15.0724" height="14.5305" rx="5" fill="#A0BCE0"/>
<rect x="0.5" y="0.5" width="21.6086" height="20.7958" rx="7.5" stroke="#121212"/>
<rect x="33.9135" width="22.6086" height="21.7958" rx="8" fill="#EB676F"/>
<rect y="32.8589" width="22.6086" height="21.7958" rx="8" fill="#32B6EA"/>
<rect x="67.8261" y="0.000123294" width="22.6086" height="21.7958" rx="8" fill="#FABE3C"/>
<rect x="33.9135" y="32.8589" width="22.6086" height="21.7958" rx="8" fill="#121212"/>
<rect x="101.739" y="0.000123294" width="22.6086" height="21.7958" rx="8" fill="#DB4444"/>
<rect x="67.8261" y="32.8589" width="22.6086" height="21.7958" rx="8" fill="#9B51E0"/>
<rect x="135.652" y="0.000123294" width="22.6086" height="21.7958" rx="8" fill="#1E58C8"/>
<rect x="101.739" y="32.8589" width="22.6086" height="21.7958" rx="8" fill="#F2994A"/>
<rect x="169.564" width="22.6086" height="21.7958" rx="8" fill="#3DAB25"/>
<rect x="203.478" width="22.6086" height="21.7958" rx="8" fill="#0C8C6C"/>
<rect x="237.391" width="22.6086" height="21.7958" rx="8" fill="#F4407D"/>
</svg>
