<svg width="146" height="18" viewBox="0 0 146 18" fill="none" xmlns="http://www.w3.org/2000/svg">
<path d="M9.25 14.25C12.5637 14.25 15.25 11.5637 15.25 8.25C15.25 4.93629 12.5637 2.25 9.25 2.25C5.93629 2.25 3.25 4.93629 3.25 8.25C3.25 11.5637 5.93629 14.25 9.25 14.25Z" stroke="#121212" stroke-width="2" stroke-linecap="round" stroke-linejoin="round"/>
<path d="M16.75 15.75L13.4875 12.4875" stroke="#121212" stroke-width="2" stroke-linecap="round" stroke-linejoin="round"/>
<path d="M58.6296 3.45789C58.2465 3.07465 57.7917 2.77063 57.2911 2.56321C56.7905 2.35578 56.254 2.24902 55.7121 2.24902C55.1702 2.24902 54.6337 2.35578 54.1331 2.56321C53.6325 2.77063 53.1777 3.07465 52.7946 3.45789L51.9996 4.25289L51.2046 3.45789C50.4308 2.68412 49.3814 2.24942 48.2871 2.24942C47.1928 2.24942 46.1434 2.68412 45.3696 3.45789C44.5958 4.23166 44.1611 5.28112 44.1611 6.37539C44.1611 7.46967 44.5958 8.51912 45.3696 9.29289L46.1646 10.0879L51.9996 15.9229L57.8346 10.0879L58.6296 9.29289C59.0128 8.90983 59.3169 8.455 59.5243 7.95441C59.7317 7.45381 59.8385 6.91726 59.8385 6.37539C59.8385 5.83353 59.7317 5.29697 59.5243 4.79638C59.3169 4.29578 59.0128 3.84096 58.6296 3.45789V3.45789Z" stroke="#121212" stroke-width="2" stroke-linecap="round" stroke-linejoin="round"/>
<g clip-path="url(#clip0_2_75)">
<path d="M91.75 16.5C92.1642 16.5 92.5 16.1642 92.5 15.75C92.5 15.3358 92.1642 15 91.75 15C91.3358 15 91 15.3358 91 15.75C91 16.1642 91.3358 16.5 91.75 16.5Z" stroke="#121212" stroke-width="2" stroke-linecap="round" stroke-linejoin="round"/>
<path d="M100 16.5C100.414 16.5 100.75 16.1642 100.75 15.75C100.75 15.3358 100.414 15 100 15C99.5858 15 99.25 15.3358 99.25 15.75C99.25 16.1642 99.5858 16.5 100 16.5Z" stroke="#121212" stroke-width="2" stroke-linecap="round" stroke-linejoin="round"/>
<path d="M85.75 0.75H88.75L90.76 10.7925C90.8286 11.1378 91.0164 11.448 91.2907 11.6687C91.5649 11.8895 91.908 12.0067 92.26 12H99.55C99.902 12.0067 100.245 11.8895 100.519 11.6687C100.794 11.448 100.981 11.1378 101.05 10.7925L102.25 4.5H89.5" stroke="#121212" stroke-width="2" stroke-linecap="round" stroke-linejoin="round"/>
</g>
<path d="M142 15.75V14.25C142 13.4544 141.684 12.6913 141.121 12.1287C140.559 11.5661 139.796 11.25 139 11.25H133C132.204 11.25 131.441 11.5661 130.879 12.1287C130.316 12.6913 130 13.4544 130 14.25V15.75" stroke="#121212" stroke-width="2" stroke-linecap="round" stroke-linejoin="round"/>
<path d="M136 8.25C137.657 8.25 139 6.90685 139 5.25C139 3.59315 137.657 2.25 136 2.25C134.343 2.25 133 3.59315 133 5.25C133 6.90685 134.343 8.25 136 8.25Z" stroke="#121212" stroke-width="2" stroke-linecap="round" stroke-linejoin="round"/>
<defs>
<clipPath id="clip0_2_75">
<rect width="18" height="18" fill="white" transform="translate(85)"/>
</clipPath>
</defs>
</svg>
