<svg width="283" height="15" viewBox="0 0 283 15" fill="none" xmlns="http://www.w3.org/2000/svg">
<rect y="6.36619" width="283" height="2.72825" fill="#E5E5E5"/>
<rect x="24.527" y="6.36619" width="168.857" height="2.72825" fill="#121212"/>
<path fill-rule="evenodd" clip-rule="evenodd" d="M20.7535 14.5507C24.9214 14.5507 28.3001 11.2934 28.3001 7.27535C28.3001 3.25728 24.9214 0 20.7535 0C16.5856 0 13.2068 3.25728 13.2068 7.27535C13.2068 11.2934 16.5856 14.5507 20.7535 14.5507Z" fill="#121212"/>
<path fill-rule="evenodd" clip-rule="evenodd" d="M194.327 14.5507C198.495 14.5507 201.874 11.2934 201.874 7.27535C201.874 3.25728 198.495 0 194.327 0C190.16 0 186.781 3.25728 186.781 7.27535C186.781 11.2934 190.16 14.5507 194.327 14.5507Z" fill="#121212"/>
</svg>
